<mxfile host="app.diagrams.net" modified="2023-11-02T19:51:08.225Z" agent="Mozilla/5.0 (Windows NT 10.0; Win64; x64) AppleWebKit/537.36 (KHTML, like Gecko) Chrome/118.0.0.0 Safari/537.36" etag="ORpIJop48ltmdnkrT9L5" version="22.0.8" type="github">
  <diagram name="Страница — 1" id="kiXj_0kn8AXtnFG-AZik">
    <mxGraphModel dx="2327" dy="820" grid="1" gridSize="10" guides="1" tooltips="1" connect="1" arrows="1" fold="1" page="1" pageScale="1" pageWidth="827" pageHeight="1169" math="0" shadow="0">
      <root>
        <mxCell id="0" />
        <mxCell id="1" parent="0" />
        <mxCell id="k3_MyYJEErI_Utt_14Fe-1" value="Beginning" style="ellipse;whiteSpace=wrap;html=1;" vertex="1" parent="1">
          <mxGeometry x="380" y="40" width="120" height="40" as="geometry" />
        </mxCell>
        <mxCell id="k3_MyYJEErI_Utt_14Fe-2" value="Input N, array, &lt;br&gt;array2" style="shape=parallelogram;perimeter=parallelogramPerimeter;whiteSpace=wrap;html=1;fixedSize=1;" vertex="1" parent="1">
          <mxGeometry x="380" y="110" width="120" height="60" as="geometry" />
        </mxCell>
        <mxCell id="k3_MyYJEErI_Utt_14Fe-3" value="i=0" style="rounded=0;whiteSpace=wrap;html=1;" vertex="1" parent="1">
          <mxGeometry x="395" y="280" width="90" height="40" as="geometry" />
        </mxCell>
        <mxCell id="k3_MyYJEErI_Utt_14Fe-4" value="Output menu&lt;br&gt;Input&amp;nbsp; action" style="shape=parallelogram;perimeter=parallelogramPerimeter;whiteSpace=wrap;html=1;fixedSize=1;" vertex="1" parent="1">
          <mxGeometry x="380" y="190" width="120" height="60" as="geometry" />
        </mxCell>
        <mxCell id="k3_MyYJEErI_Utt_14Fe-5" value="action" style="rhombus;whiteSpace=wrap;html=1;" vertex="1" parent="1">
          <mxGeometry x="400" y="350" width="80" height="80" as="geometry" />
        </mxCell>
        <mxCell id="k3_MyYJEErI_Utt_14Fe-7" value="if(i&amp;lt;N)" style="rhombus;whiteSpace=wrap;html=1;" vertex="1" parent="1">
          <mxGeometry x="40" y="450" width="80" height="80" as="geometry" />
        </mxCell>
        <mxCell id="k3_MyYJEErI_Utt_14Fe-8" value="array[i]=0" style="rhombus;whiteSpace=wrap;html=1;" vertex="1" parent="1">
          <mxGeometry x="40" y="550" width="80" height="80" as="geometry" />
        </mxCell>
        <mxCell id="k3_MyYJEErI_Utt_14Fe-11" value="array[i] -- Absent" style="shape=parallelogram;perimeter=parallelogramPerimeter;whiteSpace=wrap;html=1;fixedSize=1;" vertex="1" parent="1">
          <mxGeometry x="20" y="650" width="120" height="60" as="geometry" />
        </mxCell>
        <mxCell id="k3_MyYJEErI_Utt_14Fe-12" value="array[i]" style="shape=parallelogram;perimeter=parallelogramPerimeter;whiteSpace=wrap;html=1;fixedSize=1;" vertex="1" parent="1">
          <mxGeometry x="-120" y="650" width="120" height="60" as="geometry" />
        </mxCell>
        <mxCell id="k3_MyYJEErI_Utt_14Fe-13" value="" style="endArrow=classic;html=1;rounded=0;exitX=0.5;exitY=1;exitDx=0;exitDy=0;entryX=0.5;entryY=0;entryDx=0;entryDy=0;" edge="1" parent="1" source="k3_MyYJEErI_Utt_14Fe-1" target="k3_MyYJEErI_Utt_14Fe-2">
          <mxGeometry width="50" height="50" relative="1" as="geometry">
            <mxPoint x="250" y="320" as="sourcePoint" />
            <mxPoint x="300" y="270" as="targetPoint" />
          </mxGeometry>
        </mxCell>
        <mxCell id="k3_MyYJEErI_Utt_14Fe-14" value="" style="endArrow=classic;html=1;rounded=0;exitX=0.5;exitY=1;exitDx=0;exitDy=0;entryX=0.5;entryY=0;entryDx=0;entryDy=0;" edge="1" parent="1" source="k3_MyYJEErI_Utt_14Fe-2" target="k3_MyYJEErI_Utt_14Fe-4">
          <mxGeometry width="50" height="50" relative="1" as="geometry">
            <mxPoint x="250" y="320" as="sourcePoint" />
            <mxPoint x="300" y="270" as="targetPoint" />
          </mxGeometry>
        </mxCell>
        <mxCell id="k3_MyYJEErI_Utt_14Fe-15" value="" style="endArrow=classic;html=1;rounded=0;exitX=0.5;exitY=1;exitDx=0;exitDy=0;entryX=0.5;entryY=0;entryDx=0;entryDy=0;" edge="1" parent="1" source="k3_MyYJEErI_Utt_14Fe-4" target="k3_MyYJEErI_Utt_14Fe-3">
          <mxGeometry width="50" height="50" relative="1" as="geometry">
            <mxPoint x="250" y="320" as="sourcePoint" />
            <mxPoint x="300" y="270" as="targetPoint" />
          </mxGeometry>
        </mxCell>
        <mxCell id="k3_MyYJEErI_Utt_14Fe-17" value="" style="endArrow=classic;html=1;rounded=0;entryX=0.5;entryY=0;entryDx=0;entryDy=0;exitX=0.5;exitY=1;exitDx=0;exitDy=0;" edge="1" parent="1" source="k3_MyYJEErI_Utt_14Fe-3" target="k3_MyYJEErI_Utt_14Fe-5">
          <mxGeometry width="50" height="50" relative="1" as="geometry">
            <mxPoint x="250" y="320" as="sourcePoint" />
            <mxPoint x="300" y="270" as="targetPoint" />
          </mxGeometry>
        </mxCell>
        <mxCell id="k3_MyYJEErI_Utt_14Fe-18" value="" style="endArrow=none;html=1;rounded=0;entryX=0;entryY=0.5;entryDx=0;entryDy=0;" edge="1" parent="1" target="k3_MyYJEErI_Utt_14Fe-5">
          <mxGeometry width="50" height="50" relative="1" as="geometry">
            <mxPoint x="80" y="390" as="sourcePoint" />
            <mxPoint x="260" y="370" as="targetPoint" />
          </mxGeometry>
        </mxCell>
        <mxCell id="k3_MyYJEErI_Utt_14Fe-19" value="" style="endArrow=classic;html=1;rounded=0;entryX=0.5;entryY=0;entryDx=0;entryDy=0;" edge="1" parent="1" target="k3_MyYJEErI_Utt_14Fe-7">
          <mxGeometry width="50" height="50" relative="1" as="geometry">
            <mxPoint x="80" y="390" as="sourcePoint" />
            <mxPoint x="260" y="370" as="targetPoint" />
          </mxGeometry>
        </mxCell>
        <mxCell id="k3_MyYJEErI_Utt_14Fe-20" value="" style="endArrow=classic;html=1;rounded=0;exitX=0.5;exitY=1;exitDx=0;exitDy=0;entryX=0.5;entryY=0;entryDx=0;entryDy=0;" edge="1" parent="1" source="k3_MyYJEErI_Utt_14Fe-7" target="k3_MyYJEErI_Utt_14Fe-8">
          <mxGeometry width="50" height="50" relative="1" as="geometry">
            <mxPoint x="90" y="540" as="sourcePoint" />
            <mxPoint x="260" y="570" as="targetPoint" />
          </mxGeometry>
        </mxCell>
        <mxCell id="k3_MyYJEErI_Utt_14Fe-21" value="" style="endArrow=classic;html=1;rounded=0;exitX=0.5;exitY=1;exitDx=0;exitDy=0;entryX=0.5;entryY=0;entryDx=0;entryDy=0;" edge="1" parent="1" source="k3_MyYJEErI_Utt_14Fe-8" target="k3_MyYJEErI_Utt_14Fe-11">
          <mxGeometry width="50" height="50" relative="1" as="geometry">
            <mxPoint x="210" y="620" as="sourcePoint" />
            <mxPoint x="260" y="570" as="targetPoint" />
          </mxGeometry>
        </mxCell>
        <mxCell id="k3_MyYJEErI_Utt_14Fe-22" value="" style="endArrow=none;html=1;rounded=0;entryX=0;entryY=0.5;entryDx=0;entryDy=0;" edge="1" parent="1" target="k3_MyYJEErI_Utt_14Fe-8">
          <mxGeometry width="50" height="50" relative="1" as="geometry">
            <mxPoint x="-60" y="590" as="sourcePoint" />
            <mxPoint x="260" y="570" as="targetPoint" />
          </mxGeometry>
        </mxCell>
        <mxCell id="k3_MyYJEErI_Utt_14Fe-23" value="" style="endArrow=classic;html=1;rounded=0;entryX=0.5;entryY=0;entryDx=0;entryDy=0;" edge="1" parent="1" target="k3_MyYJEErI_Utt_14Fe-12">
          <mxGeometry width="50" height="50" relative="1" as="geometry">
            <mxPoint x="-60" y="590" as="sourcePoint" />
            <mxPoint x="260" y="570" as="targetPoint" />
          </mxGeometry>
        </mxCell>
        <mxCell id="k3_MyYJEErI_Utt_14Fe-24" value="" style="endArrow=none;html=1;rounded=0;entryX=0;entryY=0.5;entryDx=0;entryDy=0;" edge="1" parent="1" target="k3_MyYJEErI_Utt_14Fe-7">
          <mxGeometry width="50" height="50" relative="1" as="geometry">
            <mxPoint y="490" as="sourcePoint" />
            <mxPoint x="260" y="570" as="targetPoint" />
          </mxGeometry>
        </mxCell>
        <mxCell id="k3_MyYJEErI_Utt_14Fe-27" value="" style="endArrow=none;html=1;rounded=0;exitX=0.5;exitY=1;exitDx=0;exitDy=0;" edge="1" parent="1" source="k3_MyYJEErI_Utt_14Fe-12">
          <mxGeometry width="50" height="50" relative="1" as="geometry">
            <mxPoint x="210" y="620" as="sourcePoint" />
            <mxPoint x="-60" y="750" as="targetPoint" />
          </mxGeometry>
        </mxCell>
        <mxCell id="k3_MyYJEErI_Utt_14Fe-28" value="" style="endArrow=none;html=1;rounded=0;exitX=0.5;exitY=1;exitDx=0;exitDy=0;" edge="1" parent="1" source="k3_MyYJEErI_Utt_14Fe-11">
          <mxGeometry width="50" height="50" relative="1" as="geometry">
            <mxPoint x="210" y="620" as="sourcePoint" />
            <mxPoint x="80" y="750" as="targetPoint" />
          </mxGeometry>
        </mxCell>
        <mxCell id="k3_MyYJEErI_Utt_14Fe-29" value="" style="endArrow=none;html=1;rounded=0;" edge="1" parent="1">
          <mxGeometry width="50" height="50" relative="1" as="geometry">
            <mxPoint x="-1" y="490" as="sourcePoint" />
            <mxPoint x="-1" y="180" as="targetPoint" />
          </mxGeometry>
        </mxCell>
        <mxCell id="k3_MyYJEErI_Utt_14Fe-30" value="" style="endArrow=classic;html=1;rounded=0;" edge="1" parent="1">
          <mxGeometry width="50" height="50" relative="1" as="geometry">
            <mxPoint y="180" as="sourcePoint" />
            <mxPoint x="440" y="180" as="targetPoint" />
          </mxGeometry>
        </mxCell>
        <mxCell id="k3_MyYJEErI_Utt_14Fe-31" value="" style="endArrow=none;html=1;rounded=0;" edge="1" parent="1">
          <mxGeometry width="50" height="50" relative="1" as="geometry">
            <mxPoint x="-60" y="750" as="sourcePoint" />
            <mxPoint x="190" y="750" as="targetPoint" />
          </mxGeometry>
        </mxCell>
        <mxCell id="k3_MyYJEErI_Utt_14Fe-32" value="i=i+1" style="rounded=0;whiteSpace=wrap;html=1;" vertex="1" parent="1">
          <mxGeometry x="150" y="470" width="70" height="40" as="geometry" />
        </mxCell>
        <mxCell id="k3_MyYJEErI_Utt_14Fe-33" value="" style="endArrow=classic;html=1;rounded=0;entryX=0.5;entryY=1;entryDx=0;entryDy=0;" edge="1" parent="1" target="k3_MyYJEErI_Utt_14Fe-32">
          <mxGeometry width="50" height="50" relative="1" as="geometry">
            <mxPoint x="185" y="750" as="sourcePoint" />
            <mxPoint x="260" y="570" as="targetPoint" />
          </mxGeometry>
        </mxCell>
        <mxCell id="k3_MyYJEErI_Utt_14Fe-34" value="" style="endArrow=classic;html=1;rounded=0;entryX=1;entryY=0.5;entryDx=0;entryDy=0;exitX=0;exitY=0.5;exitDx=0;exitDy=0;" edge="1" parent="1" source="k3_MyYJEErI_Utt_14Fe-32" target="k3_MyYJEErI_Utt_14Fe-7">
          <mxGeometry width="50" height="50" relative="1" as="geometry">
            <mxPoint x="210" y="620" as="sourcePoint" />
            <mxPoint x="260" y="570" as="targetPoint" />
          </mxGeometry>
        </mxCell>
        <mxCell id="k3_MyYJEErI_Utt_14Fe-35" value="if(correct=-1)" style="rhombus;whiteSpace=wrap;html=1;" vertex="1" parent="1">
          <mxGeometry x="280" y="540" width="80" height="80" as="geometry" />
        </mxCell>
        <mxCell id="k3_MyYJEErI_Utt_14Fe-36" value="correct=0;&lt;br&gt;temp2=Y" style="rounded=0;whiteSpace=wrap;html=1;" vertex="1" parent="1">
          <mxGeometry x="260" y="460" width="120" height="60" as="geometry" />
        </mxCell>
        <mxCell id="k3_MyYJEErI_Utt_14Fe-37" value="Input temp2" style="shape=parallelogram;perimeter=parallelogramPerimeter;whiteSpace=wrap;html=1;fixedSize=1;" vertex="1" parent="1">
          <mxGeometry x="260" y="640" width="120" height="60" as="geometry" />
        </mxCell>
        <mxCell id="k3_MyYJEErI_Utt_14Fe-38" value="if(temp2!=Y&lt;br&gt;and&lt;br&gt;temp2!=N" style="rhombus;whiteSpace=wrap;html=1;" vertex="1" parent="1">
          <mxGeometry x="280" y="720" width="80" height="80" as="geometry" />
        </mxCell>
        <mxCell id="k3_MyYJEErI_Utt_14Fe-39" value="if(temp2=Y)" style="rhombus;whiteSpace=wrap;html=1;" vertex="1" parent="1">
          <mxGeometry x="280" y="820" width="80" height="80" as="geometry" />
        </mxCell>
        <mxCell id="k3_MyYJEErI_Utt_14Fe-40" value="Input temp" style="shape=parallelogram;perimeter=parallelogramPerimeter;whiteSpace=wrap;html=1;fixedSize=1;" vertex="1" parent="1">
          <mxGeometry x="260" y="920" width="120" height="60" as="geometry" />
        </mxCell>
        <mxCell id="k3_MyYJEErI_Utt_14Fe-41" value="if (i&amp;lt;N)" style="rhombus;whiteSpace=wrap;html=1;" vertex="1" parent="1">
          <mxGeometry x="280" y="1000" width="80" height="80" as="geometry" />
        </mxCell>
        <mxCell id="k3_MyYJEErI_Utt_14Fe-43" value="array2[i]=0;&lt;br&gt;correct=correct+1" style="rounded=0;whiteSpace=wrap;html=1;" vertex="1" parent="1">
          <mxGeometry x="260" y="1190" width="120" height="60" as="geometry" />
        </mxCell>
        <mxCell id="k3_MyYJEErI_Utt_14Fe-44" value="if(correct=0)" style="rhombus;whiteSpace=wrap;html=1;" vertex="1" parent="1">
          <mxGeometry x="282.5" y="1270" width="80" height="80" as="geometry" />
        </mxCell>
        <mxCell id="k3_MyYJEErI_Utt_14Fe-45" value="" style="endArrow=classic;html=1;rounded=0;entryX=0.5;entryY=0;entryDx=0;entryDy=0;" edge="1" parent="1" target="k3_MyYJEErI_Utt_14Fe-36">
          <mxGeometry width="50" height="50" relative="1" as="geometry">
            <mxPoint x="320" y="390" as="sourcePoint" />
            <mxPoint x="450" y="570" as="targetPoint" />
          </mxGeometry>
        </mxCell>
        <mxCell id="k3_MyYJEErI_Utt_14Fe-46" value="" style="endArrow=classic;html=1;rounded=0;exitX=0.5;exitY=1;exitDx=0;exitDy=0;entryX=0.5;entryY=0;entryDx=0;entryDy=0;" edge="1" parent="1" source="k3_MyYJEErI_Utt_14Fe-36" target="k3_MyYJEErI_Utt_14Fe-35">
          <mxGeometry width="50" height="50" relative="1" as="geometry">
            <mxPoint x="400" y="620" as="sourcePoint" />
            <mxPoint x="450" y="570" as="targetPoint" />
          </mxGeometry>
        </mxCell>
        <mxCell id="k3_MyYJEErI_Utt_14Fe-47" value="" style="endArrow=none;html=1;rounded=0;exitX=0;exitY=0.5;exitDx=0;exitDy=0;" edge="1" parent="1" source="k3_MyYJEErI_Utt_14Fe-35">
          <mxGeometry width="50" height="50" relative="1" as="geometry">
            <mxPoint x="400" y="620" as="sourcePoint" />
            <mxPoint x="240" y="580" as="targetPoint" />
          </mxGeometry>
        </mxCell>
        <mxCell id="k3_MyYJEErI_Utt_14Fe-48" value="" style="endArrow=none;html=1;rounded=0;" edge="1" parent="1">
          <mxGeometry width="50" height="50" relative="1" as="geometry">
            <mxPoint x="240" y="580" as="sourcePoint" />
            <mxPoint x="240" y="810" as="targetPoint" />
          </mxGeometry>
        </mxCell>
        <mxCell id="k3_MyYJEErI_Utt_14Fe-49" value="" style="endArrow=classic;html=1;rounded=0;" edge="1" parent="1">
          <mxGeometry width="50" height="50" relative="1" as="geometry">
            <mxPoint x="240" y="810" as="sourcePoint" />
            <mxPoint x="320" y="810" as="targetPoint" />
            <Array as="points">
              <mxPoint x="280" y="810" />
            </Array>
          </mxGeometry>
        </mxCell>
        <mxCell id="k3_MyYJEErI_Utt_14Fe-50" value="" style="endArrow=classic;html=1;rounded=0;exitX=0.5;exitY=1;exitDx=0;exitDy=0;entryX=0.5;entryY=0;entryDx=0;entryDy=0;" edge="1" parent="1" source="k3_MyYJEErI_Utt_14Fe-35" target="k3_MyYJEErI_Utt_14Fe-37">
          <mxGeometry width="50" height="50" relative="1" as="geometry">
            <mxPoint x="400" y="720" as="sourcePoint" />
            <mxPoint x="450" y="670" as="targetPoint" />
          </mxGeometry>
        </mxCell>
        <mxCell id="k3_MyYJEErI_Utt_14Fe-51" value="" style="endArrow=classic;html=1;rounded=0;exitX=0.5;exitY=1;exitDx=0;exitDy=0;entryX=0.5;entryY=0;entryDx=0;entryDy=0;" edge="1" parent="1" source="k3_MyYJEErI_Utt_14Fe-37" target="k3_MyYJEErI_Utt_14Fe-38">
          <mxGeometry width="50" height="50" relative="1" as="geometry">
            <mxPoint x="400" y="720" as="sourcePoint" />
            <mxPoint x="450" y="670" as="targetPoint" />
          </mxGeometry>
        </mxCell>
        <mxCell id="k3_MyYJEErI_Utt_14Fe-52" value="" style="endArrow=none;html=1;rounded=0;exitX=1;exitY=0.5;exitDx=0;exitDy=0;" edge="1" parent="1" source="k3_MyYJEErI_Utt_14Fe-38">
          <mxGeometry width="50" height="50" relative="1" as="geometry">
            <mxPoint x="400" y="720" as="sourcePoint" />
            <mxPoint x="410" y="760" as="targetPoint" />
          </mxGeometry>
        </mxCell>
        <mxCell id="k3_MyYJEErI_Utt_14Fe-53" value="" style="endArrow=none;html=1;rounded=0;" edge="1" parent="1">
          <mxGeometry width="50" height="50" relative="1" as="geometry">
            <mxPoint x="410" y="760" as="sourcePoint" />
            <mxPoint x="410" y="670" as="targetPoint" />
          </mxGeometry>
        </mxCell>
        <mxCell id="k3_MyYJEErI_Utt_14Fe-54" value="" style="endArrow=classic;html=1;rounded=0;entryX=1;entryY=0.5;entryDx=0;entryDy=0;" edge="1" parent="1" target="k3_MyYJEErI_Utt_14Fe-37">
          <mxGeometry width="50" height="50" relative="1" as="geometry">
            <mxPoint x="410" y="670" as="sourcePoint" />
            <mxPoint x="450" y="670" as="targetPoint" />
          </mxGeometry>
        </mxCell>
        <mxCell id="k3_MyYJEErI_Utt_14Fe-55" value="" style="endArrow=classic;html=1;rounded=0;exitX=0.5;exitY=1;exitDx=0;exitDy=0;entryX=0.5;entryY=0;entryDx=0;entryDy=0;" edge="1" parent="1" source="k3_MyYJEErI_Utt_14Fe-38" target="k3_MyYJEErI_Utt_14Fe-39">
          <mxGeometry width="50" height="50" relative="1" as="geometry">
            <mxPoint x="400" y="720" as="sourcePoint" />
            <mxPoint x="450" y="670" as="targetPoint" />
          </mxGeometry>
        </mxCell>
        <mxCell id="k3_MyYJEErI_Utt_14Fe-56" value="" style="endArrow=classic;html=1;rounded=0;exitX=0.5;exitY=1;exitDx=0;exitDy=0;entryX=0.5;entryY=0;entryDx=0;entryDy=0;" edge="1" parent="1" source="k3_MyYJEErI_Utt_14Fe-39" target="k3_MyYJEErI_Utt_14Fe-40">
          <mxGeometry width="50" height="50" relative="1" as="geometry">
            <mxPoint x="400" y="920" as="sourcePoint" />
            <mxPoint x="450" y="870" as="targetPoint" />
          </mxGeometry>
        </mxCell>
        <mxCell id="k3_MyYJEErI_Utt_14Fe-57" value="" style="endArrow=none;html=1;rounded=0;exitX=0;exitY=0.5;exitDx=0;exitDy=0;" edge="1" parent="1" source="k3_MyYJEErI_Utt_14Fe-39">
          <mxGeometry width="50" height="50" relative="1" as="geometry">
            <mxPoint x="270" y="820" as="sourcePoint" />
            <mxPoint x="-140" y="860" as="targetPoint" />
          </mxGeometry>
        </mxCell>
        <mxCell id="k3_MyYJEErI_Utt_14Fe-58" value="" style="endArrow=none;html=1;rounded=0;" edge="1" parent="1">
          <mxGeometry width="50" height="50" relative="1" as="geometry">
            <mxPoint x="-140" y="860" as="sourcePoint" />
            <mxPoint x="-140" y="490" as="targetPoint" />
          </mxGeometry>
        </mxCell>
        <mxCell id="k3_MyYJEErI_Utt_14Fe-59" value="" style="endArrow=none;html=1;rounded=0;" edge="1" parent="1">
          <mxGeometry width="50" height="50" relative="1" as="geometry">
            <mxPoint x="-140" y="490" as="sourcePoint" />
            <mxPoint y="490" as="targetPoint" />
          </mxGeometry>
        </mxCell>
        <mxCell id="k3_MyYJEErI_Utt_14Fe-60" value="" style="endArrow=classic;html=1;rounded=0;exitX=0.5;exitY=1;exitDx=0;exitDy=0;entryX=0.5;entryY=0;entryDx=0;entryDy=0;" edge="1" parent="1" source="k3_MyYJEErI_Utt_14Fe-40" target="k3_MyYJEErI_Utt_14Fe-41">
          <mxGeometry width="50" height="50" relative="1" as="geometry">
            <mxPoint x="270" y="1020" as="sourcePoint" />
            <mxPoint x="320" y="970" as="targetPoint" />
          </mxGeometry>
        </mxCell>
        <mxCell id="k3_MyYJEErI_Utt_14Fe-62" value="array2[i]=temp&lt;br style=&quot;border-color: var(--border-color);&quot;&gt;and&lt;br style=&quot;border-color: var(--border-color);&quot;&gt;array2[i]!=0" style="rhombus;whiteSpace=wrap;html=1;" vertex="1" parent="1">
          <mxGeometry x="280" y="1100" width="80" height="80" as="geometry" />
        </mxCell>
        <mxCell id="k3_MyYJEErI_Utt_14Fe-63" value="" style="endArrow=classic;html=1;rounded=0;exitX=0.5;exitY=1;exitDx=0;exitDy=0;entryX=0.5;entryY=0;entryDx=0;entryDy=0;" edge="1" parent="1" source="k3_MyYJEErI_Utt_14Fe-41" target="k3_MyYJEErI_Utt_14Fe-62">
          <mxGeometry width="50" height="50" relative="1" as="geometry">
            <mxPoint x="270" y="1120" as="sourcePoint" />
            <mxPoint x="320" y="1070" as="targetPoint" />
          </mxGeometry>
        </mxCell>
        <mxCell id="k3_MyYJEErI_Utt_14Fe-64" value="" style="endArrow=classic;html=1;rounded=0;exitX=0.5;exitY=1;exitDx=0;exitDy=0;entryX=0.5;entryY=0;entryDx=0;entryDy=0;" edge="1" parent="1" source="k3_MyYJEErI_Utt_14Fe-62" target="k3_MyYJEErI_Utt_14Fe-43">
          <mxGeometry width="50" height="50" relative="1" as="geometry">
            <mxPoint x="270" y="1220" as="sourcePoint" />
            <mxPoint x="320" y="1170" as="targetPoint" />
          </mxGeometry>
        </mxCell>
        <mxCell id="k3_MyYJEErI_Utt_14Fe-66" value="" style="endArrow=none;html=1;rounded=0;exitX=0;exitY=0.5;exitDx=0;exitDy=0;" edge="1" parent="1" source="k3_MyYJEErI_Utt_14Fe-43">
          <mxGeometry width="50" height="50" relative="1" as="geometry">
            <mxPoint x="270" y="1120" as="sourcePoint" />
            <mxPoint x="220" y="1220" as="targetPoint" />
          </mxGeometry>
        </mxCell>
        <mxCell id="k3_MyYJEErI_Utt_14Fe-68" value="i=i+1" style="rounded=0;whiteSpace=wrap;html=1;" vertex="1" parent="1">
          <mxGeometry x="180" y="1080" width="80" height="30" as="geometry" />
        </mxCell>
        <mxCell id="k3_MyYJEErI_Utt_14Fe-70" value="" style="endArrow=classic;html=1;rounded=0;entryX=0.5;entryY=1;entryDx=0;entryDy=0;" edge="1" parent="1" target="k3_MyYJEErI_Utt_14Fe-68">
          <mxGeometry width="50" height="50" relative="1" as="geometry">
            <mxPoint x="220" y="1220" as="sourcePoint" />
            <mxPoint x="320" y="1070" as="targetPoint" />
          </mxGeometry>
        </mxCell>
        <mxCell id="k3_MyYJEErI_Utt_14Fe-71" value="" style="endArrow=classic;html=1;rounded=0;entryX=0;entryY=0.5;entryDx=0;entryDy=0;" edge="1" parent="1" target="k3_MyYJEErI_Utt_14Fe-41">
          <mxGeometry width="50" height="50" relative="1" as="geometry">
            <mxPoint x="220" y="1040" as="sourcePoint" />
            <mxPoint x="320" y="1070" as="targetPoint" />
          </mxGeometry>
        </mxCell>
        <mxCell id="k3_MyYJEErI_Utt_14Fe-73" value="" style="endArrow=none;html=1;rounded=0;exitX=0.5;exitY=0;exitDx=0;exitDy=0;" edge="1" parent="1" source="k3_MyYJEErI_Utt_14Fe-68">
          <mxGeometry width="50" height="50" relative="1" as="geometry">
            <mxPoint x="270" y="1120" as="sourcePoint" />
            <mxPoint x="220" y="1040" as="targetPoint" />
          </mxGeometry>
        </mxCell>
        <mxCell id="k3_MyYJEErI_Utt_14Fe-74" value="" style="endArrow=classic;html=1;rounded=0;entryX=1;entryY=0.5;entryDx=0;entryDy=0;" edge="1" parent="1" target="k3_MyYJEErI_Utt_14Fe-44">
          <mxGeometry width="50" height="50" relative="1" as="geometry">
            <mxPoint x="410" y="1310" as="sourcePoint" />
            <mxPoint x="320" y="1170" as="targetPoint" />
          </mxGeometry>
        </mxCell>
        <mxCell id="k3_MyYJEErI_Utt_14Fe-75" value="" style="endArrow=none;html=1;rounded=0;exitX=1;exitY=0.5;exitDx=0;exitDy=0;" edge="1" parent="1" source="k3_MyYJEErI_Utt_14Fe-41">
          <mxGeometry width="50" height="50" relative="1" as="geometry">
            <mxPoint x="270" y="1220" as="sourcePoint" />
            <mxPoint x="410" y="1040" as="targetPoint" />
          </mxGeometry>
        </mxCell>
        <mxCell id="k3_MyYJEErI_Utt_14Fe-76" value="" style="endArrow=none;html=1;rounded=0;" edge="1" parent="1">
          <mxGeometry width="50" height="50" relative="1" as="geometry">
            <mxPoint x="410" y="1310" as="sourcePoint" />
            <mxPoint x="410" y="1040" as="targetPoint" />
          </mxGeometry>
        </mxCell>
        <mxCell id="k3_MyYJEErI_Utt_14Fe-77" value="" style="endArrow=none;html=1;rounded=0;entryX=0.5;entryY=1;entryDx=0;entryDy=0;" edge="1" parent="1" target="k3_MyYJEErI_Utt_14Fe-44">
          <mxGeometry width="50" height="50" relative="1" as="geometry">
            <mxPoint x="460" y="1350" as="sourcePoint" />
            <mxPoint x="320" y="1170" as="targetPoint" />
          </mxGeometry>
        </mxCell>
        <mxCell id="k3_MyYJEErI_Utt_14Fe-79" value="" style="endArrow=classic;html=1;rounded=0;" edge="1" parent="1">
          <mxGeometry width="50" height="50" relative="1" as="geometry">
            <mxPoint x="460" y="630" as="sourcePoint" />
            <mxPoint x="320" y="630" as="targetPoint" />
          </mxGeometry>
        </mxCell>
        <mxCell id="k3_MyYJEErI_Utt_14Fe-80" value="i=0" style="rounded=0;whiteSpace=wrap;html=1;" vertex="1" parent="1">
          <mxGeometry x="420" y="960" width="74" height="30" as="geometry" />
        </mxCell>
        <mxCell id="k3_MyYJEErI_Utt_14Fe-82" value="" style="endArrow=classic;html=1;rounded=0;entryX=0.5;entryY=1;entryDx=0;entryDy=0;" edge="1" parent="1" target="k3_MyYJEErI_Utt_14Fe-80">
          <mxGeometry width="50" height="50" relative="1" as="geometry">
            <mxPoint x="460" y="1350" as="sourcePoint" />
            <mxPoint x="320" y="1070" as="targetPoint" />
          </mxGeometry>
        </mxCell>
        <mxCell id="k3_MyYJEErI_Utt_14Fe-83" value="" style="endArrow=none;html=1;rounded=0;exitX=0.5;exitY=0;exitDx=0;exitDy=0;" edge="1" parent="1" source="k3_MyYJEErI_Utt_14Fe-80">
          <mxGeometry width="50" height="50" relative="1" as="geometry">
            <mxPoint x="270" y="920" as="sourcePoint" />
            <mxPoint x="457" y="630" as="targetPoint" />
          </mxGeometry>
        </mxCell>
        <mxCell id="k3_MyYJEErI_Utt_14Fe-84" value="" style="endArrow=none;html=1;rounded=0;entryX=0;entryY=0.5;entryDx=0;entryDy=0;" edge="1" parent="1" target="k3_MyYJEErI_Utt_14Fe-44">
          <mxGeometry width="50" height="50" relative="1" as="geometry">
            <mxPoint x="150" y="1310" as="sourcePoint" />
            <mxPoint x="320" y="1070" as="targetPoint" />
          </mxGeometry>
        </mxCell>
        <mxCell id="k3_MyYJEErI_Utt_14Fe-85" value="" style="endArrow=none;html=1;rounded=0;" edge="1" parent="1">
          <mxGeometry width="50" height="50" relative="1" as="geometry">
            <mxPoint x="150" y="1310" as="sourcePoint" />
            <mxPoint x="150" y="860" as="targetPoint" />
          </mxGeometry>
        </mxCell>
        <mxCell id="k3_MyYJEErI_Utt_14Fe-86" value="" style="endArrow=none;html=1;rounded=0;entryX=1;entryY=0.5;entryDx=0;entryDy=0;" edge="1" parent="1" target="k3_MyYJEErI_Utt_14Fe-5">
          <mxGeometry width="50" height="50" relative="1" as="geometry">
            <mxPoint x="750" y="390" as="sourcePoint" />
            <mxPoint x="320" y="470" as="targetPoint" />
          </mxGeometry>
        </mxCell>
        <mxCell id="k3_MyYJEErI_Utt_14Fe-87" value="" style="endArrow=classic;html=1;rounded=0;" edge="1" parent="1">
          <mxGeometry width="50" height="50" relative="1" as="geometry">
            <mxPoint x="570" y="390" as="sourcePoint" />
            <mxPoint x="570" y="460" as="targetPoint" />
            <Array as="points" />
          </mxGeometry>
        </mxCell>
        <mxCell id="k3_MyYJEErI_Utt_14Fe-88" value="correct=0;&lt;br&gt;temp2=Y" style="rounded=0;whiteSpace=wrap;html=1;" vertex="1" parent="1">
          <mxGeometry x="510" y="460" width="120" height="60" as="geometry" />
        </mxCell>
        <mxCell id="k3_MyYJEErI_Utt_14Fe-89" value="if(correct=-1)" style="rhombus;whiteSpace=wrap;html=1;" vertex="1" parent="1">
          <mxGeometry x="530" y="539" width="80" height="80" as="geometry" />
        </mxCell>
        <mxCell id="k3_MyYJEErI_Utt_14Fe-90" value="Input temp2" style="shape=parallelogram;perimeter=parallelogramPerimeter;whiteSpace=wrap;html=1;fixedSize=1;" vertex="1" parent="1">
          <mxGeometry x="510" y="639" width="120" height="60" as="geometry" />
        </mxCell>
        <mxCell id="k3_MyYJEErI_Utt_14Fe-91" value="if(temp2!=Y&lt;br&gt;and&lt;br&gt;temp2!=N" style="rhombus;whiteSpace=wrap;html=1;" vertex="1" parent="1">
          <mxGeometry x="530" y="719" width="80" height="80" as="geometry" />
        </mxCell>
        <mxCell id="k3_MyYJEErI_Utt_14Fe-92" value="if(temp2=Y)" style="rhombus;whiteSpace=wrap;html=1;" vertex="1" parent="1">
          <mxGeometry x="530" y="819" width="80" height="80" as="geometry" />
        </mxCell>
        <mxCell id="k3_MyYJEErI_Utt_14Fe-93" value="Input temp" style="shape=parallelogram;perimeter=parallelogramPerimeter;whiteSpace=wrap;html=1;fixedSize=1;" vertex="1" parent="1">
          <mxGeometry x="510" y="919" width="120" height="60" as="geometry" />
        </mxCell>
        <mxCell id="k3_MyYJEErI_Utt_14Fe-94" value="if (i&amp;lt;N)" style="rhombus;whiteSpace=wrap;html=1;" vertex="1" parent="1">
          <mxGeometry x="530" y="999" width="80" height="80" as="geometry" />
        </mxCell>
        <mxCell id="k3_MyYJEErI_Utt_14Fe-95" value="array2[i]=array[i];&lt;br&gt;correct=correct+1" style="rounded=0;whiteSpace=wrap;html=1;" vertex="1" parent="1">
          <mxGeometry x="510" y="1189" width="120" height="60" as="geometry" />
        </mxCell>
        <mxCell id="k3_MyYJEErI_Utt_14Fe-96" value="if(correct=0)" style="rhombus;whiteSpace=wrap;html=1;" vertex="1" parent="1">
          <mxGeometry x="532.5" y="1269" width="80" height="80" as="geometry" />
        </mxCell>
        <mxCell id="k3_MyYJEErI_Utt_14Fe-97" value="" style="endArrow=classic;html=1;rounded=0;exitX=0.5;exitY=1;exitDx=0;exitDy=0;entryX=0.5;entryY=0;entryDx=0;entryDy=0;" edge="1" parent="1" target="k3_MyYJEErI_Utt_14Fe-89" source="k3_MyYJEErI_Utt_14Fe-88">
          <mxGeometry width="50" height="50" relative="1" as="geometry">
            <mxPoint x="570" y="540" as="sourcePoint" />
            <mxPoint x="700" y="590" as="targetPoint" />
          </mxGeometry>
        </mxCell>
        <mxCell id="k3_MyYJEErI_Utt_14Fe-98" value="" style="endArrow=none;html=1;rounded=0;exitX=0;exitY=0.5;exitDx=0;exitDy=0;" edge="1" parent="1" source="k3_MyYJEErI_Utt_14Fe-89">
          <mxGeometry width="50" height="50" relative="1" as="geometry">
            <mxPoint x="650" y="619" as="sourcePoint" />
            <mxPoint x="490" y="579" as="targetPoint" />
          </mxGeometry>
        </mxCell>
        <mxCell id="k3_MyYJEErI_Utt_14Fe-99" value="" style="endArrow=none;html=1;rounded=0;" edge="1" parent="1">
          <mxGeometry width="50" height="50" relative="1" as="geometry">
            <mxPoint x="490" y="579" as="sourcePoint" />
            <mxPoint x="490" y="809" as="targetPoint" />
          </mxGeometry>
        </mxCell>
        <mxCell id="k3_MyYJEErI_Utt_14Fe-100" value="" style="endArrow=classic;html=1;rounded=0;" edge="1" parent="1">
          <mxGeometry width="50" height="50" relative="1" as="geometry">
            <mxPoint x="490" y="809" as="sourcePoint" />
            <mxPoint x="570" y="809" as="targetPoint" />
            <Array as="points">
              <mxPoint x="530" y="809" />
            </Array>
          </mxGeometry>
        </mxCell>
        <mxCell id="k3_MyYJEErI_Utt_14Fe-101" value="" style="endArrow=classic;html=1;rounded=0;exitX=0.5;exitY=1;exitDx=0;exitDy=0;entryX=0.5;entryY=0;entryDx=0;entryDy=0;" edge="1" parent="1" source="k3_MyYJEErI_Utt_14Fe-89" target="k3_MyYJEErI_Utt_14Fe-90">
          <mxGeometry width="50" height="50" relative="1" as="geometry">
            <mxPoint x="650" y="719" as="sourcePoint" />
            <mxPoint x="700" y="669" as="targetPoint" />
          </mxGeometry>
        </mxCell>
        <mxCell id="k3_MyYJEErI_Utt_14Fe-102" value="" style="endArrow=classic;html=1;rounded=0;exitX=0.5;exitY=1;exitDx=0;exitDy=0;entryX=0.5;entryY=0;entryDx=0;entryDy=0;" edge="1" parent="1" source="k3_MyYJEErI_Utt_14Fe-90" target="k3_MyYJEErI_Utt_14Fe-91">
          <mxGeometry width="50" height="50" relative="1" as="geometry">
            <mxPoint x="650" y="719" as="sourcePoint" />
            <mxPoint x="700" y="669" as="targetPoint" />
          </mxGeometry>
        </mxCell>
        <mxCell id="k3_MyYJEErI_Utt_14Fe-103" value="" style="endArrow=none;html=1;rounded=0;exitX=1;exitY=0.5;exitDx=0;exitDy=0;" edge="1" parent="1" source="k3_MyYJEErI_Utt_14Fe-91">
          <mxGeometry width="50" height="50" relative="1" as="geometry">
            <mxPoint x="650" y="719" as="sourcePoint" />
            <mxPoint x="660" y="759" as="targetPoint" />
          </mxGeometry>
        </mxCell>
        <mxCell id="k3_MyYJEErI_Utt_14Fe-104" value="" style="endArrow=none;html=1;rounded=0;" edge="1" parent="1">
          <mxGeometry width="50" height="50" relative="1" as="geometry">
            <mxPoint x="660" y="759" as="sourcePoint" />
            <mxPoint x="660" y="669" as="targetPoint" />
          </mxGeometry>
        </mxCell>
        <mxCell id="k3_MyYJEErI_Utt_14Fe-105" value="" style="endArrow=classic;html=1;rounded=0;entryX=1;entryY=0.5;entryDx=0;entryDy=0;" edge="1" parent="1" target="k3_MyYJEErI_Utt_14Fe-90">
          <mxGeometry width="50" height="50" relative="1" as="geometry">
            <mxPoint x="660" y="669" as="sourcePoint" />
            <mxPoint x="700" y="669" as="targetPoint" />
          </mxGeometry>
        </mxCell>
        <mxCell id="k3_MyYJEErI_Utt_14Fe-106" value="" style="endArrow=classic;html=1;rounded=0;exitX=0.5;exitY=1;exitDx=0;exitDy=0;entryX=0.5;entryY=0;entryDx=0;entryDy=0;" edge="1" parent="1" source="k3_MyYJEErI_Utt_14Fe-91" target="k3_MyYJEErI_Utt_14Fe-92">
          <mxGeometry width="50" height="50" relative="1" as="geometry">
            <mxPoint x="650" y="719" as="sourcePoint" />
            <mxPoint x="700" y="669" as="targetPoint" />
          </mxGeometry>
        </mxCell>
        <mxCell id="k3_MyYJEErI_Utt_14Fe-107" value="" style="endArrow=classic;html=1;rounded=0;exitX=0.5;exitY=1;exitDx=0;exitDy=0;entryX=0.5;entryY=0;entryDx=0;entryDy=0;" edge="1" parent="1" source="k3_MyYJEErI_Utt_14Fe-92" target="k3_MyYJEErI_Utt_14Fe-93">
          <mxGeometry width="50" height="50" relative="1" as="geometry">
            <mxPoint x="650" y="919" as="sourcePoint" />
            <mxPoint x="700" y="869" as="targetPoint" />
          </mxGeometry>
        </mxCell>
        <mxCell id="k3_MyYJEErI_Utt_14Fe-108" value="" style="endArrow=classic;html=1;rounded=0;exitX=0.5;exitY=1;exitDx=0;exitDy=0;entryX=0.5;entryY=0;entryDx=0;entryDy=0;" edge="1" parent="1" source="k3_MyYJEErI_Utt_14Fe-93" target="k3_MyYJEErI_Utt_14Fe-94">
          <mxGeometry width="50" height="50" relative="1" as="geometry">
            <mxPoint x="520" y="1019" as="sourcePoint" />
            <mxPoint x="570" y="969" as="targetPoint" />
          </mxGeometry>
        </mxCell>
        <mxCell id="k3_MyYJEErI_Utt_14Fe-109" value="array2[i]=temp&lt;br style=&quot;border-color: var(--border-color);&quot;&gt;and&lt;br style=&quot;border-color: var(--border-color);&quot;&gt;array2[i]=0" style="rhombus;whiteSpace=wrap;html=1;" vertex="1" parent="1">
          <mxGeometry x="530" y="1099" width="80" height="80" as="geometry" />
        </mxCell>
        <mxCell id="k3_MyYJEErI_Utt_14Fe-110" value="" style="endArrow=classic;html=1;rounded=0;exitX=0.5;exitY=1;exitDx=0;exitDy=0;entryX=0.5;entryY=0;entryDx=0;entryDy=0;" edge="1" parent="1" source="k3_MyYJEErI_Utt_14Fe-94" target="k3_MyYJEErI_Utt_14Fe-109">
          <mxGeometry width="50" height="50" relative="1" as="geometry">
            <mxPoint x="520" y="1119" as="sourcePoint" />
            <mxPoint x="570" y="1069" as="targetPoint" />
          </mxGeometry>
        </mxCell>
        <mxCell id="k3_MyYJEErI_Utt_14Fe-111" value="" style="endArrow=classic;html=1;rounded=0;exitX=0.5;exitY=1;exitDx=0;exitDy=0;entryX=0.5;entryY=0;entryDx=0;entryDy=0;" edge="1" parent="1" source="k3_MyYJEErI_Utt_14Fe-109" target="k3_MyYJEErI_Utt_14Fe-95">
          <mxGeometry width="50" height="50" relative="1" as="geometry">
            <mxPoint x="520" y="1219" as="sourcePoint" />
            <mxPoint x="570" y="1169" as="targetPoint" />
          </mxGeometry>
        </mxCell>
        <mxCell id="k3_MyYJEErI_Utt_14Fe-112" value="" style="endArrow=none;html=1;rounded=0;exitX=0;exitY=0.5;exitDx=0;exitDy=0;" edge="1" parent="1" source="k3_MyYJEErI_Utt_14Fe-95">
          <mxGeometry width="50" height="50" relative="1" as="geometry">
            <mxPoint x="520" y="1119" as="sourcePoint" />
            <mxPoint x="500" y="1220" as="targetPoint" />
          </mxGeometry>
        </mxCell>
        <mxCell id="k3_MyYJEErI_Utt_14Fe-113" value="" style="endArrow=classic;html=1;rounded=0;entryX=0.5;entryY=1;entryDx=0;entryDy=0;" edge="1" parent="1">
          <mxGeometry width="50" height="50" relative="1" as="geometry">
            <mxPoint x="499" y="1220" as="sourcePoint" />
            <mxPoint x="499" y="1110" as="targetPoint" />
          </mxGeometry>
        </mxCell>
        <mxCell id="k3_MyYJEErI_Utt_14Fe-114" value="" style="endArrow=classic;html=1;rounded=0;entryX=0;entryY=0.5;entryDx=0;entryDy=0;" edge="1" parent="1" target="k3_MyYJEErI_Utt_14Fe-94">
          <mxGeometry width="50" height="50" relative="1" as="geometry">
            <mxPoint x="500" y="1040" as="sourcePoint" />
            <mxPoint x="570" y="1069" as="targetPoint" />
          </mxGeometry>
        </mxCell>
        <mxCell id="k3_MyYJEErI_Utt_14Fe-115" value="" style="endArrow=none;html=1;rounded=0;exitX=0.5;exitY=0;exitDx=0;exitDy=0;" edge="1" parent="1">
          <mxGeometry width="50" height="50" relative="1" as="geometry">
            <mxPoint x="499" y="1080" as="sourcePoint" />
            <mxPoint x="499" y="1041" as="targetPoint" />
          </mxGeometry>
        </mxCell>
        <mxCell id="k3_MyYJEErI_Utt_14Fe-116" value="" style="endArrow=classic;html=1;rounded=0;entryX=1;entryY=0.5;entryDx=0;entryDy=0;" edge="1" parent="1" target="k3_MyYJEErI_Utt_14Fe-96">
          <mxGeometry width="50" height="50" relative="1" as="geometry">
            <mxPoint x="660" y="1309" as="sourcePoint" />
            <mxPoint x="570" y="1169" as="targetPoint" />
          </mxGeometry>
        </mxCell>
        <mxCell id="k3_MyYJEErI_Utt_14Fe-117" value="" style="endArrow=none;html=1;rounded=0;exitX=1;exitY=0.5;exitDx=0;exitDy=0;" edge="1" parent="1" source="k3_MyYJEErI_Utt_14Fe-94">
          <mxGeometry width="50" height="50" relative="1" as="geometry">
            <mxPoint x="520" y="1219" as="sourcePoint" />
            <mxPoint x="660" y="1039" as="targetPoint" />
          </mxGeometry>
        </mxCell>
        <mxCell id="k3_MyYJEErI_Utt_14Fe-118" value="" style="endArrow=none;html=1;rounded=0;" edge="1" parent="1">
          <mxGeometry width="50" height="50" relative="1" as="geometry">
            <mxPoint x="660" y="1309" as="sourcePoint" />
            <mxPoint x="660" y="1039" as="targetPoint" />
          </mxGeometry>
        </mxCell>
        <mxCell id="k3_MyYJEErI_Utt_14Fe-119" value="" style="endArrow=none;html=1;rounded=0;entryX=0.5;entryY=1;entryDx=0;entryDy=0;" edge="1" parent="1" target="k3_MyYJEErI_Utt_14Fe-96">
          <mxGeometry width="50" height="50" relative="1" as="geometry">
            <mxPoint x="710" y="1349" as="sourcePoint" />
            <mxPoint x="570" y="1169" as="targetPoint" />
          </mxGeometry>
        </mxCell>
        <mxCell id="k3_MyYJEErI_Utt_14Fe-120" value="" style="endArrow=classic;html=1;rounded=0;" edge="1" parent="1">
          <mxGeometry width="50" height="50" relative="1" as="geometry">
            <mxPoint x="710" y="629" as="sourcePoint" />
            <mxPoint x="570" y="629" as="targetPoint" />
          </mxGeometry>
        </mxCell>
        <mxCell id="k3_MyYJEErI_Utt_14Fe-121" value="i=0" style="rounded=0;whiteSpace=wrap;html=1;" vertex="1" parent="1">
          <mxGeometry x="660" y="960" width="80" height="30" as="geometry" />
        </mxCell>
        <mxCell id="k3_MyYJEErI_Utt_14Fe-122" value="" style="endArrow=classic;html=1;rounded=0;entryX=0.5;entryY=1;entryDx=0;entryDy=0;" edge="1" parent="1">
          <mxGeometry width="50" height="50" relative="1" as="geometry">
            <mxPoint x="710" y="1349" as="sourcePoint" />
            <mxPoint x="704" y="989" as="targetPoint" />
          </mxGeometry>
        </mxCell>
        <mxCell id="k3_MyYJEErI_Utt_14Fe-123" value="" style="endArrow=none;html=1;rounded=0;exitX=0.5;exitY=0;exitDx=0;exitDy=0;" edge="1" parent="1">
          <mxGeometry width="50" height="50" relative="1" as="geometry">
            <mxPoint x="704" y="959" as="sourcePoint" />
            <mxPoint x="710" y="629" as="targetPoint" />
          </mxGeometry>
        </mxCell>
        <mxCell id="k3_MyYJEErI_Utt_14Fe-125" value="" style="endArrow=none;html=1;rounded=0;" edge="1" parent="1">
          <mxGeometry width="50" height="50" relative="1" as="geometry">
            <mxPoint x="530" y="1380" as="sourcePoint" />
            <mxPoint x="530" y="1310" as="targetPoint" />
          </mxGeometry>
        </mxCell>
        <mxCell id="k3_MyYJEErI_Utt_14Fe-126" value="" style="endArrow=none;html=1;rounded=0;" edge="1" parent="1">
          <mxGeometry width="50" height="50" relative="1" as="geometry">
            <mxPoint x="150" y="1380" as="sourcePoint" />
            <mxPoint x="530" y="1380" as="targetPoint" />
          </mxGeometry>
        </mxCell>
        <mxCell id="k3_MyYJEErI_Utt_14Fe-127" value="" style="endArrow=none;html=1;rounded=0;" edge="1" parent="1">
          <mxGeometry width="50" height="50" relative="1" as="geometry">
            <mxPoint x="150" y="1380" as="sourcePoint" />
            <mxPoint x="150" y="1310" as="targetPoint" />
          </mxGeometry>
        </mxCell>
        <mxCell id="k3_MyYJEErI_Utt_14Fe-129" value="" style="endArrow=none;html=1;rounded=0;" edge="1" parent="1">
          <mxGeometry width="50" height="50" relative="1" as="geometry">
            <mxPoint x="750" y="1420" as="sourcePoint" />
            <mxPoint x="750" y="390" as="targetPoint" />
          </mxGeometry>
        </mxCell>
        <mxCell id="k3_MyYJEErI_Utt_14Fe-131" value="End" style="ellipse;whiteSpace=wrap;html=1;" vertex="1" parent="1">
          <mxGeometry x="330" y="1400" width="120" height="40" as="geometry" />
        </mxCell>
        <mxCell id="k3_MyYJEErI_Utt_14Fe-132" value="" style="endArrow=classic;html=1;rounded=0;entryX=1;entryY=0.5;entryDx=0;entryDy=0;" edge="1" parent="1" target="k3_MyYJEErI_Utt_14Fe-131">
          <mxGeometry width="50" height="50" relative="1" as="geometry">
            <mxPoint x="750" y="1420" as="sourcePoint" />
            <mxPoint x="320" y="1320" as="targetPoint" />
          </mxGeometry>
        </mxCell>
        <mxCell id="k3_MyYJEErI_Utt_14Fe-133" value="1" style="text;html=1;strokeColor=none;fillColor=none;align=center;verticalAlign=middle;whiteSpace=wrap;rounded=0;" vertex="1" parent="1">
          <mxGeometry x="70" y="400" width="60" height="30" as="geometry" />
        </mxCell>
        <mxCell id="k3_MyYJEErI_Utt_14Fe-134" value="2" style="text;html=1;strokeColor=none;fillColor=none;align=center;verticalAlign=middle;whiteSpace=wrap;rounded=0;" vertex="1" parent="1">
          <mxGeometry x="310" y="400" width="60" height="30" as="geometry" />
        </mxCell>
        <mxCell id="k3_MyYJEErI_Utt_14Fe-135" value="3" style="text;html=1;strokeColor=none;fillColor=none;align=center;verticalAlign=middle;whiteSpace=wrap;rounded=0;" vertex="1" parent="1">
          <mxGeometry x="560" y="400" width="60" height="30" as="geometry" />
        </mxCell>
        <mxCell id="k3_MyYJEErI_Utt_14Fe-136" value="4" style="text;html=1;strokeColor=none;fillColor=none;align=center;verticalAlign=middle;whiteSpace=wrap;rounded=0;" vertex="1" parent="1">
          <mxGeometry x="740" y="400" width="60" height="30" as="geometry" />
        </mxCell>
        <mxCell id="k3_MyYJEErI_Utt_14Fe-137" value="False" style="text;html=1;strokeColor=none;fillColor=none;align=center;verticalAlign=middle;whiteSpace=wrap;rounded=0;" vertex="1" parent="1">
          <mxGeometry x="-10" y="460" width="60" height="30" as="geometry" />
        </mxCell>
        <mxCell id="k3_MyYJEErI_Utt_14Fe-138" value="True" style="text;html=1;strokeColor=none;fillColor=none;align=center;verticalAlign=middle;whiteSpace=wrap;rounded=0;" vertex="1" parent="1">
          <mxGeometry x="80" y="520" width="60" height="30" as="geometry" />
        </mxCell>
        <mxCell id="k3_MyYJEErI_Utt_14Fe-139" value="True" style="text;html=1;strokeColor=none;fillColor=none;align=center;verticalAlign=middle;whiteSpace=wrap;rounded=0;" vertex="1" parent="1">
          <mxGeometry x="80" y="619" width="60" height="30" as="geometry" />
        </mxCell>
        <mxCell id="k3_MyYJEErI_Utt_14Fe-140" value="True" style="text;html=1;strokeColor=none;fillColor=none;align=center;verticalAlign=middle;whiteSpace=wrap;rounded=0;" vertex="1" parent="1">
          <mxGeometry x="260" y="609" width="60" height="30" as="geometry" />
        </mxCell>
        <mxCell id="k3_MyYJEErI_Utt_14Fe-141" value="True" style="text;html=1;strokeColor=none;fillColor=none;align=center;verticalAlign=middle;whiteSpace=wrap;rounded=0;" vertex="1" parent="1">
          <mxGeometry x="350" y="730" width="60" height="30" as="geometry" />
        </mxCell>
        <mxCell id="k3_MyYJEErI_Utt_14Fe-142" value="True" style="text;html=1;strokeColor=none;fillColor=none;align=center;verticalAlign=middle;whiteSpace=wrap;rounded=0;" vertex="1" parent="1">
          <mxGeometry x="320" y="890" width="60" height="30" as="geometry" />
        </mxCell>
        <mxCell id="k3_MyYJEErI_Utt_14Fe-143" value="True" style="text;html=1;strokeColor=none;fillColor=none;align=center;verticalAlign=middle;whiteSpace=wrap;rounded=0;" vertex="1" parent="1">
          <mxGeometry x="320" y="1070" width="60" height="30" as="geometry" />
        </mxCell>
        <mxCell id="k3_MyYJEErI_Utt_14Fe-144" value="" style="endArrow=none;html=1;rounded=0;entryX=0;entryY=0.5;entryDx=0;entryDy=0;" edge="1" parent="1" target="k3_MyYJEErI_Utt_14Fe-62">
          <mxGeometry width="50" height="50" relative="1" as="geometry">
            <mxPoint x="220" y="1140" as="sourcePoint" />
            <mxPoint x="320" y="1010" as="targetPoint" />
          </mxGeometry>
        </mxCell>
        <mxCell id="k3_MyYJEErI_Utt_14Fe-145" value="i=i+1" style="rounded=0;whiteSpace=wrap;html=1;" vertex="1" parent="1">
          <mxGeometry x="475" y="1080" width="80" height="30" as="geometry" />
        </mxCell>
        <mxCell id="k3_MyYJEErI_Utt_14Fe-147" value="True" style="text;html=1;strokeColor=none;fillColor=none;align=center;verticalAlign=middle;whiteSpace=wrap;rounded=0;" vertex="1" parent="1">
          <mxGeometry x="340" y="1320" width="60" height="30" as="geometry" />
        </mxCell>
        <mxCell id="k3_MyYJEErI_Utt_14Fe-148" value="True" style="text;html=1;strokeColor=none;fillColor=none;align=center;verticalAlign=middle;whiteSpace=wrap;rounded=0;" vertex="1" parent="1">
          <mxGeometry x="320" y="1160" width="60" height="30" as="geometry" />
        </mxCell>
        <mxCell id="k3_MyYJEErI_Utt_14Fe-149" value="True" style="text;html=1;strokeColor=none;fillColor=none;align=center;verticalAlign=middle;whiteSpace=wrap;rounded=0;" vertex="1" parent="1">
          <mxGeometry x="590" y="1319" width="60" height="30" as="geometry" />
        </mxCell>
        <mxCell id="k3_MyYJEErI_Utt_14Fe-150" value="True" style="text;html=1;strokeColor=none;fillColor=none;align=center;verticalAlign=middle;whiteSpace=wrap;rounded=0;" vertex="1" parent="1">
          <mxGeometry x="570" y="1160" width="60" height="30" as="geometry" />
        </mxCell>
        <mxCell id="k3_MyYJEErI_Utt_14Fe-151" value="True" style="text;html=1;strokeColor=none;fillColor=none;align=center;verticalAlign=middle;whiteSpace=wrap;rounded=0;" vertex="1" parent="1">
          <mxGeometry x="570" y="1069" width="60" height="30" as="geometry" />
        </mxCell>
        <mxCell id="k3_MyYJEErI_Utt_14Fe-152" value="True" style="text;html=1;strokeColor=none;fillColor=none;align=center;verticalAlign=middle;whiteSpace=wrap;rounded=0;" vertex="1" parent="1">
          <mxGeometry x="580" y="889" width="60" height="30" as="geometry" />
        </mxCell>
        <mxCell id="k3_MyYJEErI_Utt_14Fe-153" value="True" style="text;html=1;strokeColor=none;fillColor=none;align=center;verticalAlign=middle;whiteSpace=wrap;rounded=0;" vertex="1" parent="1">
          <mxGeometry x="610" y="730" width="60" height="30" as="geometry" />
        </mxCell>
        <mxCell id="k3_MyYJEErI_Utt_14Fe-154" value="True" style="text;html=1;strokeColor=none;fillColor=none;align=center;verticalAlign=middle;whiteSpace=wrap;rounded=0;" vertex="1" parent="1">
          <mxGeometry x="510" y="610" width="60" height="30" as="geometry" />
        </mxCell>
        <mxCell id="k3_MyYJEErI_Utt_14Fe-155" value="False" style="text;html=1;strokeColor=none;fillColor=none;align=center;verticalAlign=middle;whiteSpace=wrap;rounded=0;" vertex="1" parent="1">
          <mxGeometry x="-10" y="564" width="60" height="30" as="geometry" />
        </mxCell>
        <mxCell id="k3_MyYJEErI_Utt_14Fe-156" value="False" style="text;html=1;strokeColor=none;fillColor=none;align=center;verticalAlign=middle;whiteSpace=wrap;rounded=0;" vertex="1" parent="1">
          <mxGeometry x="240" y="550" width="60" height="30" as="geometry" />
        </mxCell>
        <mxCell id="k3_MyYJEErI_Utt_14Fe-157" value="False" style="text;html=1;strokeColor=none;fillColor=none;align=center;verticalAlign=middle;whiteSpace=wrap;rounded=0;" vertex="1" parent="1">
          <mxGeometry x="485" y="550" width="60" height="30" as="geometry" />
        </mxCell>
        <mxCell id="k3_MyYJEErI_Utt_14Fe-158" value="False" style="text;html=1;strokeColor=none;fillColor=none;align=center;verticalAlign=middle;whiteSpace=wrap;rounded=0;" vertex="1" parent="1">
          <mxGeometry x="570" y="790" width="60" height="30" as="geometry" />
        </mxCell>
        <mxCell id="k3_MyYJEErI_Utt_14Fe-159" value="False" style="text;html=1;strokeColor=none;fillColor=none;align=center;verticalAlign=middle;whiteSpace=wrap;rounded=0;" vertex="1" parent="1">
          <mxGeometry x="320" y="789" width="60" height="30" as="geometry" />
        </mxCell>
        <mxCell id="k3_MyYJEErI_Utt_14Fe-160" value="False" style="text;html=1;strokeColor=none;fillColor=none;align=center;verticalAlign=middle;whiteSpace=wrap;rounded=0;" vertex="1" parent="1">
          <mxGeometry x="220" y="830" width="60" height="30" as="geometry" />
        </mxCell>
        <mxCell id="k3_MyYJEErI_Utt_14Fe-161" value="False" style="text;html=1;strokeColor=none;fillColor=none;align=center;verticalAlign=middle;whiteSpace=wrap;rounded=0;" vertex="1" parent="1">
          <mxGeometry x="480" y="830" width="60" height="30" as="geometry" />
        </mxCell>
        <mxCell id="k3_MyYJEErI_Utt_14Fe-162" value="" style="endArrow=none;html=1;rounded=0;entryX=0;entryY=0.5;entryDx=0;entryDy=0;" edge="1" parent="1" target="k3_MyYJEErI_Utt_14Fe-92">
          <mxGeometry width="50" height="50" relative="1" as="geometry">
            <mxPoint x="500" y="860" as="sourcePoint" />
            <mxPoint x="320" y="860" as="targetPoint" />
          </mxGeometry>
        </mxCell>
        <mxCell id="k3_MyYJEErI_Utt_14Fe-163" value="" style="endArrow=none;html=1;rounded=0;" edge="1" parent="1">
          <mxGeometry width="50" height="50" relative="1" as="geometry">
            <mxPoint x="500" y="1020" as="sourcePoint" />
            <mxPoint x="500" y="860" as="targetPoint" />
          </mxGeometry>
        </mxCell>
        <mxCell id="k3_MyYJEErI_Utt_14Fe-164" value="" style="endArrow=none;html=1;rounded=0;" edge="1" parent="1">
          <mxGeometry width="50" height="50" relative="1" as="geometry">
            <mxPoint x="470" y="1020" as="sourcePoint" />
            <mxPoint x="500" y="1020" as="targetPoint" />
          </mxGeometry>
        </mxCell>
        <mxCell id="k3_MyYJEErI_Utt_14Fe-165" value="" style="endArrow=none;html=1;rounded=0;" edge="1" parent="1">
          <mxGeometry width="50" height="50" relative="1" as="geometry">
            <mxPoint x="470" y="1380" as="sourcePoint" />
            <mxPoint x="470" y="1020" as="targetPoint" />
          </mxGeometry>
        </mxCell>
        <mxCell id="k3_MyYJEErI_Utt_14Fe-166" value="False" style="text;html=1;strokeColor=none;fillColor=none;align=center;verticalAlign=middle;whiteSpace=wrap;rounded=0;" vertex="1" parent="1">
          <mxGeometry x="354" y="1010" width="60" height="30" as="geometry" />
        </mxCell>
        <mxCell id="k3_MyYJEErI_Utt_14Fe-167" value="False" style="text;html=1;strokeColor=none;fillColor=none;align=center;verticalAlign=middle;whiteSpace=wrap;rounded=0;" vertex="1" parent="1">
          <mxGeometry x="600" y="1010" width="60" height="30" as="geometry" />
        </mxCell>
        <mxCell id="k3_MyYJEErI_Utt_14Fe-168" value="False" style="text;html=1;strokeColor=none;fillColor=none;align=center;verticalAlign=middle;whiteSpace=wrap;rounded=0;" vertex="1" parent="1">
          <mxGeometry x="222.5" y="1110" width="60" height="30" as="geometry" />
        </mxCell>
        <mxCell id="k3_MyYJEErI_Utt_14Fe-169" value="False" style="text;html=1;strokeColor=none;fillColor=none;align=center;verticalAlign=middle;whiteSpace=wrap;rounded=0;" vertex="1" parent="1">
          <mxGeometry x="485" y="1110" width="60" height="30" as="geometry" />
        </mxCell>
        <mxCell id="k3_MyYJEErI_Utt_14Fe-171" value="" style="endArrow=none;html=1;rounded=0;entryX=0.75;entryY=1;entryDx=0;entryDy=0;exitX=0.25;exitY=1;exitDx=0;exitDy=0;" edge="1" parent="1" source="k3_MyYJEErI_Utt_14Fe-169" target="k3_MyYJEErI_Utt_14Fe-169">
          <mxGeometry width="50" height="50" relative="1" as="geometry">
            <mxPoint x="270" y="1110" as="sourcePoint" />
            <mxPoint x="320" y="1060" as="targetPoint" />
          </mxGeometry>
        </mxCell>
        <mxCell id="k3_MyYJEErI_Utt_14Fe-172" value="False" style="text;html=1;strokeColor=none;fillColor=none;align=center;verticalAlign=middle;whiteSpace=wrap;rounded=0;" vertex="1" parent="1">
          <mxGeometry x="222.5" y="1280" width="60" height="30" as="geometry" />
        </mxCell>
        <mxCell id="k3_MyYJEErI_Utt_14Fe-173" value="False" style="text;html=1;strokeColor=none;fillColor=none;align=center;verticalAlign=middle;whiteSpace=wrap;rounded=0;" vertex="1" parent="1">
          <mxGeometry x="480" y="1320" width="60" height="30" as="geometry" />
        </mxCell>
      </root>
    </mxGraphModel>
  </diagram>
</mxfile>
